<svg width="129" height="128" viewBox="0 0 129 128" fill="none" xmlns="http://www.w3.org/2000/svg">
<path fill-rule="evenodd" clip-rule="evenodd" d="M39.8537 1.83594L53.9179 10.0142L54.2947 10.35C56.0442 11.909 57.1735 12.9714 58.4005 14.4947C61.144 12.994 63.9687 12.0462 66.2964 11.3811L71.9018 9.77957L72.6284 15.5447C72.6296 15.5531 72.6322 15.5704 72.6361 15.5959C72.639 15.6147 72.6427 15.6379 72.6472 15.665C75.433 14.3767 79.3312 12.8245 83.1773 12.2328L90.2423 11.1458L88.85 18.1072C88.8492 18.1125 88.8482 18.1193 88.847 18.1273C88.8391 18.1807 88.8243 18.2905 88.8106 18.4469C88.7991 18.5781 88.7888 18.7373 88.7835 18.9193C89.7369 18.3902 90.7777 17.82 91.873 17.2314C96.5211 14.7339 102.521 11.7024 106.95 10.2245L116.967 6.902L117.523 17.0059C117.725 20.6442 117.965 25.1345 117.718 29.6076C117.474 34.0447 116.736 38.8734 114.739 43.1023L114.642 43.3074L113.025 46.0549C113.843 46.9292 114.523 47.8389 115.088 48.6933C116.257 50.4607 117.158 52.3602 117.763 53.6352C117.86 53.8387 117.949 54.0263 118.03 54.195L118.168 54.4806L122.279 66.7655L120.51 66.689L122.345 69.0532L112.134 73.5152C112.193 73.8133 112.253 74.1188 112.314 74.4294C112.396 74.8438 112.48 75.2671 112.564 75.6935C113.005 77.9346 113.518 80.5551 113.632 81.692C113.668 82.0489 113.722 82.4376 113.783 82.8784C113.941 84.0076 114.146 85.4789 114.211 87.6334L114.382 93.2586L108.775 92.7653L108.773 92.7651L108.404 92.7321C108.167 92.7108 107.825 92.6798 107.402 92.6406C106.555 92.5622 105.38 92.4511 104.066 92.3199C101.465 92.0604 98.2221 91.7131 95.9141 91.3809C90.3135 90.5784 85.3833 92.121 83.1882 94.1688C80.4416 96.7435 78.9086 98.9549 77.1367 102.224C75.5734 105.108 74.5886 108.502 73.8295 113.409L72.5859 123.263L62.7643 120.684C62.5401 120.626 62.2574 120.556 61.9382 120.478C61.0042 120.249 59.7528 119.942 58.7069 119.589C58.5084 119.522 58.3037 119.449 58.0943 119.37C57.9319 119.566 57.7741 119.763 57.6179 119.963L52.2407 127.451L44.9057 121.296L44.8261 121.223C44.4894 120.915 44.1622 120.593 43.8449 120.264L40.2428 125.001L34.5 114.541L34.4905 114.524C33.9522 113.524 33.4121 112.598 32.8086 111.563C32.2428 110.593 31.6213 109.528 30.893 108.216C29.6341 105.949 28.1973 103.172 27.538 100.681C26.5933 97.1128 26.8822 93.8321 27.7796 90.991L26.5374 88.61L26.5329 88.6013L26.5299 88.5955L26.524 88.5841L26.5059 88.5488C26.4911 88.5198 26.4708 88.4801 26.4458 88.4305C26.3957 88.3313 26.326 88.192 26.2411 88.0191C26.072 87.6742 25.8399 87.1902 25.5815 86.6198C25.08 85.5127 24.4169 83.9439 23.9438 82.3909C23.0449 79.44 22.9401 77.4481 23.1388 74.1124C22.8954 73.7697 22.5858 73.3754 22.2117 72.976C21.0953 71.7838 19.6672 70.8099 17.8956 70.5943L12.282 69.911L6.73492 73.3267L9.03873 62.021L9.05094 61.9617L9.08101 61.8179C9.10691 61.695 9.14446 61.519 9.1931 61.2965C9.29031 60.8518 9.43218 60.2199 9.6142 59.4543C9.97685 57.9289 10.5054 55.8455 11.1646 53.6429C11.8176 51.4611 12.631 49.0532 13.5795 46.9213C14.4314 45.0068 15.7303 42.5046 17.6676 40.9149C18.4678 40.2582 19.3779 39.8742 19.8249 39.6931C20.406 39.4576 21.0434 39.2446 21.6563 39.0574C22.8903 38.6803 24.3239 38.3172 25.6348 38.0086C26.1345 37.891 26.6266 37.7789 27.0958 37.6745C27.2911 36.0216 27.5036 34.4188 27.6932 33.0584C27.8595 31.865 28.0101 30.8443 28.1194 30.1204C28.174 29.7582 28.2184 29.4699 28.2494 29.2707L28.2853 29.0408L28.2985 28.9568L28.3185 28.8313L29.7655 21.9837L29.783 21.9116L29.8177 21.7696C29.8384 21.6858 29.8672 21.5694 29.9001 21.4392C29.9559 21.2178 30.0416 20.8832 30.1209 20.6059C30.7719 18.1947 31.4733 16.1833 31.957 14.9012C32.6094 13.172 34.0818 10.7125 35.1027 9.0651C35.6667 8.15511 36.1986 7.32713 36.5886 6.72797C36.7842 6.42757 36.9453 6.18269 37.0586 6.01142C37.1153 5.92574 37.16 5.85836 37.1912 5.81152L37.2276 5.75692L37.2418 5.73569L37.2424 5.73475L39.8537 1.83594ZM43.0388 15.2558C42.1743 16.6923 41.5167 17.8919 41.3133 18.4311C40.9141 19.4892 40.3168 21.2006 39.7655 23.2486L39.7523 23.2974L39.7382 23.346C39.7109 23.4397 39.6568 23.6455 39.5964 23.885C39.5692 23.9926 39.545 24.0902 39.5276 24.1609L39.5178 24.2011L38.1556 30.6473L38.1309 30.8057C38.1019 30.9919 38.0597 31.266 38.0074 31.6128C37.9026 32.3069 37.7576 33.2896 37.5975 34.4386C37.2753 36.7503 36.8998 39.6801 36.6639 42.275L36.3234 46.0206L32.6306 46.732L32.61 46.736L32.538 46.75C32.4735 46.7626 32.3766 46.7817 32.2516 46.8066C32.0015 46.8564 31.6399 46.9293 31.2006 47.0205C30.3188 47.2036 29.1387 47.4571 27.9263 47.7425C26.6988 48.0315 25.5076 48.3369 24.5786 48.6208C24.2822 48.7114 24.0419 48.7909 23.8543 48.8578C23.6453 49.1582 23.2411 49.8063 22.716 50.9864C22.0761 52.4246 21.4618 54.1715 20.9089 55.9691C21.574 55.9626 22.2598 55.9984 22.959 56.0888L31.9856 57.2552L26.6654 63.6411C27.7985 64.4495 28.7456 65.3233 29.5109 66.1407C30.567 67.2684 31.3443 68.3564 31.8643 69.172C32.1264 69.5831 32.3289 69.9341 32.4739 70.1988C32.5465 70.3314 32.6051 70.4432 32.6499 70.5308C32.6604 70.5514 32.6701 70.5706 32.6791 70.5885C32.6894 70.6088 32.6986 70.6274 32.7069 70.6442L32.7419 70.716L32.7436 70.7196L33.3178 71.919L33.2202 73.2452C33.0661 75.3415 33.0257 76.4337 33.0718 77.2516C33.1103 77.936 33.2134 78.5038 33.5099 79.477C33.7984 80.4242 34.2589 81.5406 34.6906 82.4937C34.8988 82.9534 35.0858 83.3432 35.219 83.6147C35.2853 83.7499 35.3376 83.8544 35.3717 83.9219L35.407 83.9916L35.4085 83.9944L35.4149 84.0067L35.4161 84.0091L38.8393 90.5701L37.7835 92.8137C36.998 94.4827 36.6985 96.2087 37.2051 98.1226C37.5093 99.2718 38.361 101.066 39.6357 103.362C40.0946 104.188 40.693 105.222 41.2951 106.262C41.3865 106.42 41.4779 106.578 41.569 106.736L43.7957 103.807L47.7577 109.188C47.8208 109.273 47.8833 109.358 47.9452 109.442C48.9024 110.743 49.7268 111.863 50.5546 112.797C51.4673 111.709 52.4347 110.683 53.6189 109.498L57.1827 105.933L60.7186 109.526C60.8049 109.613 61.0756 109.834 61.9095 110.116C62.318 110.254 62.7879 110.383 63.3731 110.53C63.5475 110.574 63.7601 110.627 63.9899 110.683C64.0375 110.695 64.0859 110.706 64.1348 110.718C64.9731 105.75 66.1808 101.451 68.3452 97.4582C70.4852 93.5104 72.6284 90.3604 76.3517 86.8707L76.3573 86.8655C81.4223 82.1327 89.7524 80.395 97.3362 81.4825L97.3388 81.4829C99.036 81.7272 101.39 81.9922 103.614 82.2225C103.609 82.1898 103.604 82.1557 103.598 82.1202C103.544 81.7951 103.473 81.3901 103.386 80.9173C103.212 79.9719 102.988 78.8243 102.752 77.6261C102.676 77.237 102.597 76.8394 102.518 76.4407C102.126 74.4592 101.73 72.4531 101.547 71.3408L100.915 67.5043L106.204 65.1931C106.158 65.1548 106.111 65.1164 106.063 65.0779L94.3151 55.5455L107.853 56.1316C107.513 55.4674 107.157 54.8291 106.747 54.2087C105.883 52.9021 105.09 52.184 104.373 51.8509L99.3765 49.5289L105.785 38.6411C106.928 36.1224 107.525 32.8421 107.734 29.0575C107.888 26.2593 107.822 23.3968 107.697 20.6241C104.404 21.9832 100.306 24.0521 96.6063 26.0403C94.3222 27.2676 92.278 28.4157 90.8046 29.257C90.0687 29.6773 89.4772 30.0199 89.0716 30.2563C88.8689 30.3744 88.7127 30.466 88.6084 30.5273L88.4915 30.5961L88.4572 30.6164L88.4563 30.6169L84.4745 32.976L81.8153 29.188C80.5159 27.3368 79.7573 25.4213 79.3235 23.6788C78.4363 24.0278 77.5653 24.4061 76.7417 24.7892C75.5305 25.3525 74.5006 25.8887 73.7786 26.2812C73.4188 26.4769 73.1386 26.6351 72.9541 26.741C72.862 26.7939 72.794 26.8336 72.7521 26.8582L72.7092 26.8834L72.7073 26.8846L72.7062 26.8852L72.7053 26.8858L72.7039 26.8866L68.936 29.1474L66.2105 25.6955C65.442 24.7221 64.8491 23.67 64.3919 22.6684C62.9626 23.3281 61.6762 24.1074 60.6192 25.0518L55.9923 29.1862L53.096 24.0684C53.0191 23.9841 52.8859 23.8379 52.7559 23.6862C52.5941 23.4973 52.3831 23.2385 52.1676 22.9236L52.1309 22.8699L52.0281 22.711C50.5202 20.4942 49.8743 19.8154 48.0158 18.1499L43.0388 15.2558ZM23.4395 49.0233C23.4395 49.0233 23.4539 49.0151 23.4887 48.9997C23.4579 49.0158 23.4395 49.0233 23.4395 49.0233Z" fill="#FFE792"/>
<path d="M112.642 64.7041L114.457 67.0434L106.48 70.529C106.886 72.9964 108.49 80.5231 108.657 82.1908C108.855 84.1708 109.128 84.9367 109.214 87.7845C109.214 87.7845 101.006 87.0623 96.6265 86.4319C90.0322 85.4862 83.4003 87.1275 79.771 90.5188C76.5354 93.5514 74.6971 96.2322 72.741 99.841C70.7849 103.45 69.6806 107.495 68.8775 112.715L68.3394 116.979L64.0335 115.848C61.5483 115.196 58.8774 114.783 57.1551 113.033C55.6664 114.522 54.6305 115.657 53.6131 116.968L51.3244 120.155L48.2025 117.535C46.5047 115.981 45.0602 113.957 43.7316 112.152L40.9215 115.848L38.8925 112.152C36.9487 108.544 33.335 103.042 32.3715 99.402C31.5041 96.1251 32.0824 93.1856 33.2594 90.6846L30.9741 86.3044C30.9741 86.3044 29.4884 83.4341 28.7269 80.9339C27.9653 78.4338 27.927 77.0489 28.2337 72.8784C28.2337 72.8784 24.041 66.2938 17.3887 65.4841L22.3183 61.0475C18.0384 60.4945 13.938 63.0193 13.938 63.0193C13.938 63.0193 17.0153 47.9182 20.8394 44.78C22.2225 43.6451 31.6844 41.8223 31.6844 41.8223C32.1774 36.3998 33.2366 29.7415 33.2366 29.7415L34.6421 23.09C34.6421 23.09 34.8267 22.3292 34.9374 21.9487C35.5402 19.7096 36.1923 17.84 36.6352 16.6661C37.5333 14.2857 41.3968 8.51709 41.3968 8.51709L50.9682 14.0828C53.3497 16.2051 54.2762 17.1214 56.1954 19.9475L56.2939 20.0997C56.6137 20.5671 57.0663 20.9321 57.2877 21.3234C60.2757 18.6535 64.2194 17.1746 67.6701 16.1887C67.6701 16.1887 68.163 20.0997 70.1348 22.5971C70.1348 22.5971 77.5291 18.1605 83.9375 17.1746C83.9375 17.1746 82.9516 22.1041 85.9077 26.3152C85.9077 26.3152 100.585 17.6195 108.532 14.9673L112.334 13.7065L112.531 17.2826C112.937 24.6087 113.417 34.1949 110.218 40.9667L106.48 47.3166C110.27 49.0774 112.174 53.5636 113.527 56.368L115.23 61.4556L109.214 61.1952C110.419 62.1734 111.83 63.465 112.642 64.7041Z" fill="#473804"/>
<path d="M42.533 81.3174C42.533 81.3174 42.6374 81.2968 42.6606 81.2558C42.6606 81.2353 42.6722 81.2251 42.6838 81.2046C42.6954 81.1841 42.6838 81.1636 42.6838 81.1431C42.6606 80.9791 42.6374 80.8151 42.6026 80.6511C42.6026 80.5895 42.5794 80.528 42.5678 80.4665C42.5446 80.364 42.5214 80.2718 42.4982 80.1693C42.4749 80.0873 42.4517 80.0155 42.4285 79.9335C42.4169 79.8822 42.3937 79.831 42.3705 79.7695C42.3357 79.6465 42.2893 79.5337 42.2429 79.421C42.2081 79.3287 42.1733 79.2467 42.1385 79.1647C41.9644 78.7547 41.7505 78.3423 41.4883 78.0403C41.3934 77.931 41.3843 77.9269 41.1059 77.6194C40.7462 77.2298 40.3401 76.8711 39.9109 76.5225C39.2263 75.969 38.7411 75.5385 38.0566 74.9952C37.9522 74.9132 37.8361 74.8209 37.7665 74.6979C37.6969 74.5647 37.6853 74.4212 37.6853 74.2776C37.8981 73.6324 38.1958 73.1706 38.5091 72.4223C38.8687 71.5715 39.2168 70.8437 39.4373 69.9416C39.4373 69.9006 39.4605 69.8596 39.4373 69.8288C39.4024 69.7776 39.3212 69.7776 39.2516 69.7878L38.4627 69.8596C38.1958 69.8903 37.9174 69.9108 37.6853 70.0339C37.1632 70.3004 36.966 71.0282 36.6643 71.469C35.2108 73.9401 34.7591 75.6205 35.2463 78.3164C35.2579 78.3779 35.2695 78.4497 35.2928 78.5112C35.3276 78.6854 35.374 78.8597 35.4552 79.0237C36.6502 81.5249 39.9689 81.8606 42.5446 81.3174H42.533ZM98.2731 66.7955C97.9947 67.185 98.2035 67.8677 98.2731 68.3187C98.6444 70.5841 99.1908 72.2462 99.562 74.5219C99.8637 76.3055 100.252 78.4975 100.554 80.2811C100.391 79.3175 94.0914 78.993 93.2097 78.911C92.3859 78.8392 90.4338 78.911 89.5868 78.911C83.9018 78.911 78.7107 80.5408 74.8471 84.1491C71.5637 87.214 69.4289 91.0888 67.3637 94.8918C64.7184 99.7814 62.0714 103.903 62.7908 109.295C59.9482 108.547 58.0827 106.767 56.8877 104.368C54.312 106.469 51.9696 109.14 50.1945 111.805C47.4216 109.283 45.141 106.193 43.5747 102.964C43.2615 103.61 42.8008 104.722 42.4991 105.368C41.0953 102.764 40.1661 101.688 39.9109 98.8178C39.6556 95.9374 39.9894 94.3138 41.927 91.9972C41.8538 92.9084 41.8286 93.6929 41.927 94.6726C42.0546 95.9437 42.6669 96.9126 42.8177 97.0868C43.7807 98.4707 48.5682 99.1766 52.919 99.1766C54.0328 99.1766 55.7435 99.0741 56.6716 98.8178C59.2009 98.3873 60.6925 96.8907 62.3284 95.1276C62.8389 94.5843 63.2914 94.0102 63.7322 93.4157C64.7068 92.1036 65.5654 90.7198 66.4704 89.3769C68.0134 87.1935 71.0648 83.3598 73.4897 79.8335C74.9516 77.7116 76.1814 75.7025 76.7151 74.2366C77.4808 70.8437 77.5156 69.9313 77.5969 68.6603C76.0306 68.7935 74.4759 68.9883 73.0024 69.3163C69.9626 69.9929 68.1991 70.931 66.4704 73.5346C64.3588 76.7124 63.7697 78.0576 60.6719 80.5075C58.1775 82.4757 54.5576 82.7935 51.2161 82.8755C51.1813 82.8755 51.1465 82.8755 51.1117 82.8755C49.615 82.8755 47.2253 82.3424 46.8424 81.5121C46.7573 81.1699 46.8629 80.9611 47.269 80.3666C47.269 80.3563 47.2922 80.3358 47.3038 80.3255C47.7563 79.6695 48.2436 78.9724 48.9513 78.5112C49.7751 77.9679 50.2041 77.8244 51.1671 77.6194C52.1649 77.4041 53.1162 77.0351 54.0096 76.5841C55.8544 75.6717 57.5135 74.4622 59.0102 73.1501C59.3002 72.8938 59.5903 72.6273 59.8803 72.3608C60.7157 70.4541 60.7157 69.1728 61.7483 67.4199C63.7322 65.7798 69.777 66.8971 73.4897 65.3288C78.5018 63.2171 81.0866 58.8708 85.5187 55.9084C87.6999 54.4425 89.2889 52.95 91.349 52.0106C92.5103 51.4812 95.1162 51.0461 96.8909 51.5537C100.755 52.659 103.587 54.0442 104.634 56.6278C103.589 56.2075 101.096 56.5292 100.06 56.8291C98.2116 57.3647 96.6361 58.5326 95.1162 59.7729C98.272 60.4289 101.641 62.1968 103.393 64.5955C101.908 65.1183 100.884 65.549 99.3986 66.0718C98.9925 66.2153 98.5168 66.4879 98.2731 66.7955Z" fill="#F9CE35"/>
<path d="M26.7755 50.4439C27.0926 50.3292 29.8733 49.5398 31.8622 49.3105L32.7558 50.4439L32.9576 50.9023C32.972 50.9787 33.0008 51.0551 33.0008 51.1315C33.0441 51.5899 32.6117 52.303 32.482 52.7487C32.2081 53.691 32.2127 54.0984 32.1695 55.0662C32.1407 55.8939 32.8855 58.2879 32.8855 58.2879C33.0585 58.5935 33.3323 58.8354 33.6061 59.0773C34.9465 60.2998 36.2869 61.5095 37.6273 62.7319C37.1615 63.9983 36.8674 65.4013 36.5473 66.5139C36.2446 66.9595 36.3701 66.7303 36.1972 67.0105C36.1972 67.0232 36.1828 67.0487 36.1684 67.0614C36.1395 67.1124 36.1107 67.1505 36.0819 67.1887C36.0819 67.2142 36.053 67.227 36.0386 67.2397C36.0098 67.2779 35.9954 67.3034 35.9666 67.3288C35.9666 67.3288 35.9377 67.3543 35.9377 67.367C35.9089 67.3925 35.8801 67.418 35.8513 67.4307C35.6351 67.5453 33.9488 68.0292 33.502 68.3985C33.4732 68.4239 33.4588 68.4367 33.4299 68.4621C33.4011 68.3603 33.3579 68.2457 33.3146 68.1438C32.8823 67.0105 31.6752 65.6989 30.7816 64.8967C30.7672 64.8839 30.7239 64.8585 30.6951 64.8203C30.6519 64.7821 30.5942 64.7439 30.5366 64.6929C30.4069 64.6038 30.2483 64.4765 30.061 64.3364C29.9601 64.2727 29.8592 64.1963 29.7583 64.1199C29.5421 63.9671 29.3259 63.8016 29.0809 63.636C28.0288 62.8847 27.5826 62.3889 27.5682 62.4144C27.6835 62.2234 27.8132 62.0451 27.9429 61.8668C28.0294 61.7522 28.1159 61.6249 28.2024 61.5103C29.3842 59.9568 31.0119 59.1665 32.8855 58.2879C32.8855 58.2879 31.1237 57.4729 30.3509 56.9657C29.5729 56.3735 29.0239 56.3573 28.1015 56.37C28.0438 56.37 28.0006 56.37 27.9429 56.37C27.9141 56.37 27.8997 56.37 27.8709 56.37C26.6458 56.4082 25.5427 56.3348 24.8365 56.4366C24.8221 56.4366 24.7933 56.4366 24.7645 56.4366C24.7212 56.4366 24.6924 56.4366 24.6636 56.4494C24.5915 56.4494 24.5194 56.4621 24.4618 56.4748H24.433C24.3609 56.4748 24.3177 56.4748 24.26 56.4748H24.2312C24.188 56.4748 24.1447 56.4748 24.1159 56.4621C24.0871 56.4621 24.0727 56.4366 24.0727 56.4112C24.0727 56.2711 24.0727 56.1183 24.1015 55.9782C24.1015 55.8509 24.1303 55.7235 24.1591 55.5962C24.6059 52.9094 26.3143 50.5839 26.7899 50.4311L26.7755 50.4439Z" fill="#F9CE35"/>
<path d="M61.9845 83.7717C62.1586 86.3548 59.0267 93.286 57.066 95.2131C56.7179 94.9671 56.0792 91.1911 55.9632 90.8221C55.6963 89.9405 55.8659 90.0143 55.2394 85.9038C56.7593 85.668 60.6387 84.4174 61.9845 83.7717ZM40.2558 88.8975C38.7128 87.6059 38.1146 85.4733 37.6273 83.7717C41.1312 84.9915 44.4958 85.709 47.9881 85.8936C50.0068 86.0063 54.8964 85.7825 57.066 85.5365V86.5068V88.5281C56.6019 88.8971 48.0693 88.5041 45.8184 88.0941C44.2057 87.8276 42.9469 87.4384 42.8483 88.5281C42.8334 88.6919 42.7985 89.0368 42.7795 89.424C42.7563 89.8955 42.7795 90.2404 42.8483 90.5357C42.5118 90.3819 41.6819 89.9774 41.3687 89.7724C41.0554 89.5673 40.5845 89.1726 40.2558 88.8975Z" fill="#F9CE35"/>
<path d="M44.1021 58.3238C43.5243 58.3496 42.4447 59.7282 39.9704 56.9728C37.4961 54.2174 37.7609 48.7129 38.2025 46.3051C42.5722 49.7948 43.7248 55.0996 44.1021 58.3238Z" fill="#F9CE35"/>
<path d="M80.7217 48.3403C71.2449 50.1478 65.3904 56.7522 63.6478 59.8284L70.9009 60.3895C78.1149 59.1691 80.4539 51.8482 80.7217 48.3403Z" fill="#F9CE35"/>
<path d="M105.564 22.0674C101.63 24.4151 91.2608 33.3443 93.5082 45.8369C97.1167 42.2943 105.084 35.4321 105.564 22.0674Z" fill="#F9CE35"/>
</svg>
