<svg xmlns="http://www.w3.org/2000/svg" viewBox="2 2.1 408.9 369.1" fill="currentColor" aria-hidden="true">
  <path fill-rule="evenodd" clip-rule="evenodd" d="M 132 14.230 C 108.604 41.292, 76.292 71.324, 56 84.868 C 51.325 87.988, 37.280 95.257, 24.790 101.020 C 12.299 106.784, 2.062 111.867, 2.040 112.315 C 1.999 113.159, 14.728 130.644, 30.567 151.500 C 47.022 173.166, 63.922 200.186, 78.103 227.500 C 87.205 245.030, 92.342 257.499, 101.584 284.486 C 110.255 309.807, 109.418 309.126, 141.481 316.966 C 150.674 319.214, 159.700 321.829, 161.539 322.776 C 163.377 323.724, 170.195 330.559, 176.690 337.964 C 196.917 361.024, 209.879 370.110, 223.500 370.779 C 230.263 371.110, 230.770 370.966, 238.490 366.521 C 266.181 350.578, 292.281 323.842, 317.303 285.791 L 326.317 272.083 335.409 268.469 C 364.735 256.812, 399.663 231.492, 407.375 216.300 C 410.837 209.480, 409.773 207.181, 391.958 183 C 380.070 166.863, 373.641 150.634, 372.399 133.625 C 371.721 124.330, 373.649 116.935, 381.613 98.290 C 384.026 92.640, 386 87.636, 386 87.169 C 386 86.279, 281.045 16, 279.716 16 C 279.295 16, 266.283 25.243, 250.801 36.540 C 235.318 47.836, 222.111 56.949, 221.451 56.790 C 220.792 56.630, 203.086 44.350, 182.104 29.500 C 161.122 14.650, 143.628 2.407, 143.228 2.292 C 142.827 2.178, 137.775 7.550, 132 14.230 M 130.495 70.749 C 99.181 113.822, 89.740 123.539, 71.506 131.466 C 67.317 133.287, 63.634 135.033, 63.321 135.346 C 63.009 135.658, 70.813 146.621, 80.664 159.707 C 111.003 200.007, 118.551 211.778, 132.937 241.221 C 148.622 273.324, 154.564 278.702, 173.276 277.727 C 182.380 277.253, 203 272.242, 203 270.503 C 203 270.269, 200.451 266.347, 197.335 261.789 C 184.750 243.373, 176.422 220.224, 171.025 188.651 C 167.994 170.917, 168.412 168.655, 172.487 180.733 C 181.808 208.363, 193.969 232.089, 209.451 252.850 C 219.690 266.580, 217.753 265.853, 232.736 261.585 C 245.545 257.936, 258.825 253.333, 260.278 252.038 C 260.706 251.656, 257.742 247.217, 253.691 242.172 C 239.756 224.816, 231.148 201.974, 229.505 177.987 L 228.923 169.500 231.818 177 C 240.388 199.199, 251.909 217.900, 269.877 238.777 L 276.059 245.960 280.280 244.362 C 287.546 241.609, 302.378 234.287, 305.211 232.053 L 307.923 229.916 304.301 225.208 C 293.839 211.609, 287.313 189.207, 285.596 161 L 285.079 152.500 286.571 157.500 C 292.466 177.242, 295.634 185.989, 300.355 195.558 C 306.016 207.035, 317.316 225, 318.874 225 C 322.642 225, 352.015 205.940, 357.355 200.029 C 362.024 194.861, 361.909 193.563, 355.498 179.103 C 341.575 147.701, 338.066 126.591, 344.091 110.486 L 346.268 104.667 340.959 100.083 C 328.878 89.656, 302.615 68, 302.049 68 C 301.714 68, 298.528 71.475, 294.970 75.721 C 286.039 86.379, 275.956 97, 274.769 97 C 274.225 97, 266.275 92.725, 257.102 87.500 C 247.929 82.275, 239.984 78, 239.447 78 C 238.910 78, 234.652 81.362, 229.985 85.472 C 207.903 104.918, 204.985 107.232, 203.742 106.283 C 203.059 105.761, 193.725 98.171, 183 89.416 C 159.671 70.372, 142.482 57, 141.330 57 C 140.868 57, 135.993 63.187, 130.495 70.749 M 261 272.164 C 237.567 280.954, 214 288.280, 198.551 291.579 C 191.923 292.994, 185.648 294.479, 184.606 294.880 C 182.873 295.546, 196.798 306.728, 215.654 319.811 C 222.098 324.282, 227.467 322.222, 245.012 308.545 C 266.237 291.999, 277.041 279.426, 280.496 267.250 C 281.308 264.388, 282.603 264.062, 261 272.164" />
</svg>
